<mxfile host="app.diagrams.net" agent="Mozilla/5.0 (Windows NT 10.0; Win64; x64) AppleWebKit/537.36 (KHTML, like Gecko) Chrome/126.0.0.0 YaBrowser/24.7.0.0 Safari/537.36" version="24.7.17">
  <diagram name="Страница — 1" id="GqbakI1_hm_RhSKXqP8h">
    <mxGraphModel dx="1754" dy="1950" grid="1" gridSize="10" guides="1" tooltips="1" connect="1" arrows="1" fold="1" page="1" pageScale="1" pageWidth="827" pageHeight="1169" math="0" shadow="0">
      <root>
        <mxCell id="0" />
        <mxCell id="1" parent="0" />
        <mxCell id="YEhqPDkAhFL5Mo4mzTF1-1" value="Customer" style="shape=umlActor;verticalLabelPosition=bottom;verticalAlign=top;html=1;outlineConnect=0;" vertex="1" parent="1">
          <mxGeometry x="100" y="210" width="30" height="60" as="geometry" />
        </mxCell>
        <mxCell id="YEhqPDkAhFL5Mo4mzTF1-2" value="operations_with_order:&lt;br&gt;make_order()&lt;br&gt;change_products()&lt;div&gt;set_order_date()&lt;/div&gt;&lt;div&gt;view_order_history()&lt;/div&gt;" style="ellipse;whiteSpace=wrap;html=1;" vertex="1" parent="1">
          <mxGeometry x="220" y="70" width="180" height="90" as="geometry" />
        </mxCell>
        <mxCell id="YEhqPDkAhFL5Mo4mzTF1-3" value="" style="endArrow=classic;html=1;rounded=0;entryX=0;entryY=1;entryDx=0;entryDy=0;exitX=0.75;exitY=0.1;exitDx=0;exitDy=0;exitPerimeter=0;" edge="1" parent="1" source="YEhqPDkAhFL5Mo4mzTF1-1" target="YEhqPDkAhFL5Mo4mzTF1-2">
          <mxGeometry width="50" height="50" relative="1" as="geometry">
            <mxPoint x="150" y="220" as="sourcePoint" />
            <mxPoint x="200" y="170" as="targetPoint" />
          </mxGeometry>
        </mxCell>
        <mxCell id="YEhqPDkAhFL5Mo4mzTF1-4" value="add_review()" style="ellipse;whiteSpace=wrap;html=1;" vertex="1" parent="1">
          <mxGeometry x="265" y="170" width="80" height="50" as="geometry" />
        </mxCell>
        <mxCell id="YEhqPDkAhFL5Mo4mzTF1-5" value="" style="endArrow=classic;html=1;rounded=0;entryX=0;entryY=0.5;entryDx=0;entryDy=0;" edge="1" parent="1" source="YEhqPDkAhFL5Mo4mzTF1-1" target="YEhqPDkAhFL5Mo4mzTF1-4">
          <mxGeometry width="50" height="50" relative="1" as="geometry">
            <mxPoint x="390" y="310" as="sourcePoint" />
            <mxPoint x="440" y="260" as="targetPoint" />
          </mxGeometry>
        </mxCell>
        <mxCell id="YEhqPDkAhFL5Mo4mzTF1-8" value="" style="endArrow=classic;html=1;rounded=0;exitX=1;exitY=1;exitDx=0;exitDy=0;exitPerimeter=0;" edge="1" parent="1" source="YEhqPDkAhFL5Mo4mzTF1-1" target="YEhqPDkAhFL5Mo4mzTF1-9">
          <mxGeometry width="50" height="50" relative="1" as="geometry">
            <mxPoint x="180" y="390" as="sourcePoint" />
            <mxPoint x="200" y="310" as="targetPoint" />
          </mxGeometry>
        </mxCell>
        <mxCell id="YEhqPDkAhFL5Mo4mzTF1-9" value="operations_with_products:&lt;div&gt;choose/view_products()&lt;br&gt;&lt;div&gt;view_information()&lt;/div&gt;&lt;div&gt;add_in_basket()&lt;/div&gt;&lt;/div&gt;" style="ellipse;whiteSpace=wrap;html=1;" vertex="1" parent="1">
          <mxGeometry x="200" y="230" width="200" height="90" as="geometry" />
        </mxCell>
        <mxCell id="YEhqPDkAhFL5Mo4mzTF1-10" value="" style="endArrow=classic;html=1;rounded=0;exitX=0;exitY=1;exitDx=0;exitDy=0;exitPerimeter=0;entryX=0;entryY=0;entryDx=0;entryDy=0;" edge="1" parent="1" source="YEhqPDkAhFL5Mo4mzTF1-1" target="YEhqPDkAhFL5Mo4mzTF1-11">
          <mxGeometry width="50" height="50" relative="1" as="geometry">
            <mxPoint x="150" y="380" as="sourcePoint" />
            <mxPoint x="200" y="350" as="targetPoint" />
          </mxGeometry>
        </mxCell>
        <mxCell id="YEhqPDkAhFL5Mo4mzTF1-11" value="operations_with_selfname_inf:&lt;div&gt;add/change_payment_card()&lt;/div&gt;&lt;div&gt;add/change_selfname_inf()&lt;/div&gt;&lt;div&gt;add/change_address()&lt;/div&gt;" style="ellipse;whiteSpace=wrap;html=1;" vertex="1" parent="1">
          <mxGeometry x="185" y="330" width="215" height="110" as="geometry" />
        </mxCell>
        <mxCell id="YEhqPDkAhFL5Mo4mzTF1-12" value="Seller" style="shape=umlActor;verticalLabelPosition=bottom;verticalAlign=top;html=1;outlineConnect=0;" vertex="1" parent="1">
          <mxGeometry x="730" y="80" width="30" height="60" as="geometry" />
        </mxCell>
        <mxCell id="YEhqPDkAhFL5Mo4mzTF1-13" value="operations_with_statistic:&lt;div&gt;view_count_of_clients()&lt;/div&gt;&lt;div&gt;view_reviews()&lt;/div&gt;" style="ellipse;whiteSpace=wrap;html=1;" vertex="1" parent="1">
          <mxGeometry x="480" y="30" width="170" height="90" as="geometry" />
        </mxCell>
        <mxCell id="YEhqPDkAhFL5Mo4mzTF1-14" value="operations_with_products:&lt;div&gt;add_products_for_sale()&lt;/div&gt;&lt;div&gt;change_products_info()&lt;/div&gt;&lt;div&gt;delete_old_products()&lt;/div&gt;&lt;div&gt;add_stocks_for_products()&lt;/div&gt;" style="ellipse;whiteSpace=wrap;html=1;" vertex="1" parent="1">
          <mxGeometry x="470" y="130" width="190" height="130" as="geometry" />
        </mxCell>
        <mxCell id="YEhqPDkAhFL5Mo4mzTF1-15" value="" style="endArrow=classic;html=1;rounded=0;entryX=1;entryY=0.5;entryDx=0;entryDy=0;exitX=0.25;exitY=0.1;exitDx=0;exitDy=0;exitPerimeter=0;" edge="1" parent="1" source="YEhqPDkAhFL5Mo4mzTF1-12" target="YEhqPDkAhFL5Mo4mzTF1-13">
          <mxGeometry width="50" height="50" relative="1" as="geometry">
            <mxPoint x="690" y="250" as="sourcePoint" />
            <mxPoint x="740" y="200" as="targetPoint" />
          </mxGeometry>
        </mxCell>
        <mxCell id="YEhqPDkAhFL5Mo4mzTF1-16" value="" style="endArrow=classic;html=1;rounded=0;exitX=0.5;exitY=0.5;exitDx=0;exitDy=0;exitPerimeter=0;entryX=1;entryY=0.5;entryDx=0;entryDy=0;" edge="1" parent="1" source="YEhqPDkAhFL5Mo4mzTF1-12" target="YEhqPDkAhFL5Mo4mzTF1-14">
          <mxGeometry width="50" height="50" relative="1" as="geometry">
            <mxPoint x="630" y="310" as="sourcePoint" />
            <mxPoint x="680" y="260" as="targetPoint" />
          </mxGeometry>
        </mxCell>
        <mxCell id="YEhqPDkAhFL5Mo4mzTF1-17" value="Admin" style="shape=umlActor;verticalLabelPosition=bottom;verticalAlign=top;html=1;outlineConnect=0;" vertex="1" parent="1">
          <mxGeometry x="730" y="370" width="30" height="60" as="geometry" />
        </mxCell>
        <mxCell id="YEhqPDkAhFL5Mo4mzTF1-18" value="moderate_reviews()" style="ellipse;whiteSpace=wrap;html=1;" vertex="1" parent="1">
          <mxGeometry x="480" y="290" width="120" height="80" as="geometry" />
        </mxCell>
        <mxCell id="YEhqPDkAhFL5Mo4mzTF1-19" value="" style="endArrow=classic;html=1;rounded=0;entryX=1;entryY=0.5;entryDx=0;entryDy=0;exitX=0.25;exitY=0.1;exitDx=0;exitDy=0;exitPerimeter=0;" edge="1" parent="1" source="YEhqPDkAhFL5Mo4mzTF1-17" target="YEhqPDkAhFL5Mo4mzTF1-18">
          <mxGeometry width="50" height="50" relative="1" as="geometry">
            <mxPoint x="610" y="470" as="sourcePoint" />
            <mxPoint x="660" y="420" as="targetPoint" />
          </mxGeometry>
        </mxCell>
        <mxCell id="YEhqPDkAhFL5Mo4mzTF1-20" value="operations_with_users:&lt;div&gt;ban_user()&lt;/div&gt;&lt;div&gt;check_user_info()&lt;/div&gt;&lt;div&gt;help_users()&lt;/div&gt;" style="ellipse;whiteSpace=wrap;html=1;" vertex="1" parent="1">
          <mxGeometry x="460" y="380" width="160" height="80" as="geometry" />
        </mxCell>
        <mxCell id="YEhqPDkAhFL5Mo4mzTF1-21" value="" style="endArrow=classic;html=1;rounded=0;entryX=1;entryY=0;entryDx=0;entryDy=0;exitX=0.5;exitY=0.5;exitDx=0;exitDy=0;exitPerimeter=0;" edge="1" parent="1" source="YEhqPDkAhFL5Mo4mzTF1-17" target="YEhqPDkAhFL5Mo4mzTF1-20">
          <mxGeometry width="50" height="50" relative="1" as="geometry">
            <mxPoint x="720" y="390" as="sourcePoint" />
            <mxPoint x="770" y="340" as="targetPoint" />
          </mxGeometry>
        </mxCell>
        <mxCell id="YEhqPDkAhFL5Mo4mzTF1-22" value="operations_with_products:&lt;div&gt;set_status() #orig/fake&lt;/div&gt;&lt;div&gt;delete_products() #illegal&lt;/div&gt;" style="ellipse;whiteSpace=wrap;html=1;" vertex="1" parent="1">
          <mxGeometry x="400" y="470" width="200" height="80" as="geometry" />
        </mxCell>
        <mxCell id="YEhqPDkAhFL5Mo4mzTF1-23" value="" style="endArrow=classic;html=1;rounded=0;entryX=0.997;entryY=0.376;entryDx=0;entryDy=0;entryPerimeter=0;exitX=0;exitY=1;exitDx=0;exitDy=0;exitPerimeter=0;" edge="1" parent="1" source="YEhqPDkAhFL5Mo4mzTF1-17" target="YEhqPDkAhFL5Mo4mzTF1-22">
          <mxGeometry width="50" height="50" relative="1" as="geometry">
            <mxPoint x="690" y="530" as="sourcePoint" />
            <mxPoint x="740" y="480" as="targetPoint" />
          </mxGeometry>
        </mxCell>
        <mxCell id="YEhqPDkAhFL5Mo4mzTF1-25" value="" style="shape=link;html=1;rounded=0;" edge="1" parent="1">
          <mxGeometry width="100" relative="1" as="geometry">
            <mxPoint x="160" as="sourcePoint" />
            <mxPoint x="720" as="targetPoint" />
          </mxGeometry>
        </mxCell>
        <mxCell id="YEhqPDkAhFL5Mo4mzTF1-26" value="" style="shape=link;html=1;rounded=0;" edge="1" parent="1">
          <mxGeometry width="100" relative="1" as="geometry">
            <mxPoint x="160" as="sourcePoint" />
            <mxPoint x="160" y="600" as="targetPoint" />
          </mxGeometry>
        </mxCell>
        <mxCell id="YEhqPDkAhFL5Mo4mzTF1-27" value="" style="shape=link;html=1;rounded=0;" edge="1" parent="1">
          <mxGeometry width="100" relative="1" as="geometry">
            <mxPoint x="160" y="600" as="sourcePoint" />
            <mxPoint x="720" y="600" as="targetPoint" />
          </mxGeometry>
        </mxCell>
        <mxCell id="YEhqPDkAhFL5Mo4mzTF1-28" value="" style="shape=link;html=1;rounded=0;" edge="1" parent="1">
          <mxGeometry width="100" relative="1" as="geometry">
            <mxPoint x="720" y="600" as="sourcePoint" />
            <mxPoint x="720" as="targetPoint" />
          </mxGeometry>
        </mxCell>
      </root>
    </mxGraphModel>
  </diagram>
</mxfile>
